<?xml version="1.0" encoding="utf-8"?>
<!-- Generator: Adobe Illustrator 26.0.2, SVG Export Plug-In . SVG Version: 6.00 Build 0)  -->
<svg version="1.1" xmlns="http://www.w3.org/2000/svg" xmlns:xlink="http://www.w3.org/1999/xlink" x="0px" y="0px"
	 viewBox="0 0 90 30" style="enable-background:new 0 0 90 30;" xml:space="preserve">
<style type="text/css">
	.st0{fill:#FFFFFF;}
	.st1{fill:#1FA54A;}
	.st2{fill:#69BF79;}
	.st3{fill:#58BA6B;}
	.st4{fill:#76C385;}
</style>
<g id="Guides">
</g>
<g id="Image">
</g>
<g id="Paths">
	<g id="RnM7RM.tif">
		<g>
			<g>
				<path class="st0" d="M15.6153,10.9104c-1.3198,2.4673-2.6159,4.9643-3.9417,7.4316c-0.5113,0.9928-1.0226,1.9857-1.5636,2.9489
					c-0.4518,0.8145-1.082,1.3555-2.0749,1.3852c-0.9928,0-1.6587-0.4816-2.0808-1.3198c-1.8252-3.5493-3.692-7.0927-5.5528-10.6361
					c-0.006,0.006-0.006,0.006-0.0119,0.0119c-0.0594-0.0297-0.1189-0.0297-0.1784-0.0297v-0.1249
					c0.0654-0.0416,0.1189-0.0535,0.1784-0.0297c0.0178,0.006,0.0416,0.0119,0.0594,0.0297
					c0.0119,0.0119,0.0238,0.0297,0.0298,0.0416c0.3151,0.3746,0.4875,0.7253,0.6956,1.1058
					C2.619,14.644,4.242,17.468,5.6867,20.3931c0.1784,0.3567,0.3924,0.6896,0.6005,1.0226c0.9037,1.415,2.711,1.3793,3.5493-0.0297
					c0.3924-0.6659,0.755-1.3853,1.1177-2.0808c1.3555-2.6159,2.7705-5.2378,4.1201-7.8537
					c0.0951-0.1784,0.1843-0.3924,0.2735-0.5707c0.1784-0.3924,0.2378-0.7848-0.214-1.0226c-0.4816-0.2735-0.8383,0-1.0523,0.3924
					c-0.5113,1.0523-1.1118,2.1046-1.6528,3.1866c-1.1771,2.2592-2.3484,4.4827-3.5493,6.7122
					c-0.6064,1.082-1.088,1.1415-1.6884,0.0298c-1.4447-2.6456-2.8299-5.327-4.2152-8.0023
					c-0.2973-0.6064-0.6302-1.1771-0.9334-1.7479C1.6559,9.7392,1.1743,9.5252,0.449,9.8581c-0.006,0-0.006,0-0.0119,0
					c-0.0179,0-0.0298,0-0.0476-0.006C0.3182,9.8462,0.2587,9.8224,0.2112,9.7986h0.1784V9.7689
					c0.7848-0.6361,1.2663-0.547,1.7479,0.3864c1.742,3.2818,3.4601,6.5636,5.2021,9.8453c0.1843,0.327,0.2437,0.8383,0.7253,0.8383
					c0.4221,0,0.4816-0.4816,0.66-0.7788c1.6884-3.1926,3.3412-6.3793,5.0297-9.5421c0.0892-0.1486,0.1783-0.3329,0.2378-0.4816
					c0.3032-0.5113,0.6956-0.8145,1.2663-0.5113C15.8591,9.8284,15.9185,10.3396,15.6153,10.9104z"/>
				<path class="st0" d="M28.891,15.5477c0.0297,0.9275-0.2735,1.2604-1.2366,1.2604c-3.1866,0-6.409,0.0297-9.6016,0
					c-0.8383,0-0.8977,0.2438-0.6005,0.9334c1.3555,3.4601,5.9631,4.2746,8.4006,1.415c0.0892-0.0892,0.1486-0.1784,0.2378-0.2735
					c0.3924-0.4816,0.874-0.5707,1.3555-0.1784c0.4518,0.3627,0.4518,0.8145,0.1189,1.2961
					c-1.082,1.4447-2.5267,2.3484-4.3044,2.6456c-3.6087,0.6005-7.0392-1.6825-7.7942-5.1783
					c-0.7788-3.6088,1.2663-7.0689,4.8157-8.0915c0.2735-0.0892,0.6004-0.1189,0.9334-0.1843c0-0.0475,0-0.0773,0.0179-0.1189
					c0.006,0,0.006,0,0.0119,0c0.0238,0.0416,0.0416,0.0832,0.0416,0.1189c0,0.0119,0,0.0238-0.0119,0.0357
					c0,0.0357-0.0238,0.0654-0.0595,0.0892c-1.5636,0.4221-3.038,1.0226-4.0903,2.3127c-1.7182,2.0808-2.1106,4.4292-1.088,6.8668
					c1.0226,2.4375,2.9488,3.7277,5.6301,3.912c1.956,0.1189,3.6385-0.4816,5.0237-1.8371c0.214-0.214,0.4221-0.4518,0.5708-0.6956
					c0.1843-0.2973,0.2437-0.6302-0.0595-0.8977c-0.2973-0.2438-0.6005-0.214-0.8977,0.0297
					c-0.1545,0.1189-0.3032,0.2973-0.4221,0.4518c-2.6219,2.6456-6.9857,1.9263-8.5195-1.415
					c-0.5113-1.088-0.2735-1.4447,0.9037-1.4744c2.9191-0.0298,5.868,0,8.7871,0c1.4447,0,1.8074-0.4518,1.5042-1.8371
					c-0.541-2.5267-2.0154-4.2746-4.5125-5.1188c-0.3032-0.1189-0.6659-0.1486-0.9334-0.3567
					c-0.0119-0.0178-0.0238-0.0297-0.0357-0.0416c-0.0059-0.0119-0.0119-0.0179-0.0119-0.0238
					c-0.0298-0.0475-0.0298-0.0892-0.006-0.1486h0.0238c0,0.0595,0.0297,0.0892,0.0297,0.1486
					C26.2395,9.5846,28.8018,12.4146,28.891,15.5477z"/>
				<path class="st0" d="M41.8933,20.1196c-1.2069,1.5042-2.7705,2.4376-4.6968,2.5564c-3.7633,0.2438-6.9202-2.2235-7.3721-5.7193
					c-0.5113-3.7574,1.742-6.8905,5.5945-7.7348c0.0416-0.0238,0.0892-0.0594,0.1427-0.1011
					c-0.1427,0.3865-0.5945,0.2973-0.8918,0.4043c-2.5564,0.8145-4.4233,3.1332-4.6373,5.6004
					c-0.2973,3.5493,1.8074,5.7788,3.8228,6.7122c2.3484,1.082,5.4161,0.5708,7.2532-1.2366
					c0.6599-0.6302,0.9334-1.3555,0.541-1.623c-0.7194-0.5113-1.082,0.1784-1.5042,0.5708c-2.5862,2.4375-6.623,1.7717-8.2758-1.415
					c-0.66-1.2663-0.4816-1.5934,0.9334-1.6231h8.6979c1.5041,0,1.8073-0.4221,1.4744-1.8965
					c-0.6005-2.6218-2.1046-4.3341-4.6968-5.1486c-0.2497-0.0832-0.6302-0.0654-0.7015-0.4221c0.006,0,0.006,0,0.0119,0
					c0.9037,0.3924,1.8668,0.5708,2.6754,1.1415c1.8371,1.2663,2.8299,3.0142,3.0737,5.1783
					c0.1189,1.0523-0.2437,1.4447-1.2961,1.4447H31.6318c0.4459,1.9263,1.5339,3.2223,3.3353,3.7931
					c1.956,0.6302,3.7039,0.1486,5.1486-1.2663c0.1189-0.1189,0.2437-0.2675,0.3627-0.4221
					c0.3924-0.4459,0.874-0.6005,1.3555-0.1784C42.3154,19.1267,42.25,19.638,41.8933,20.1196z"/>
				<path class="st0" d="M57.7849,20.9341c0.2973,0.5708,0.3865,1.1415-0.2437,1.4744c-0.6897,0.3567-1.1118-0.0595-1.415-0.6956
					c-1.6825-3.1866-3.3709-6.409-5.0535-9.6016c-0.1546-0.2973-0.2438-0.7788-0.6659-0.8086c-0.4221,0-0.4816,0.4816-0.6599,0.7788
					c-0.9334,1.7182-1.8371,3.4661-2.8002,5.2972h5.208c0.6599,0,1.2663,0.0892,1.2307,0.9334
					c-0.0298,0.7848-0.6005,0.8739-1.201,0.9037c-1.8371,0-3.6742,0.0298-5.535,0c-0.4816,0-0.7551,0.1486-0.9631,0.6005
					c-0.3329,0.7253-0.7253,1.3853-1.088,2.0808c-0.2973,0.6005-0.7788,0.868-1.415,0.541
					c-0.6005-0.3329-0.5113-0.9037-0.2081-1.4447c1.8073-3.4007,3.6088-6.8311,5.4161-10.2318
					c0.4221-0.8145,1.082-1.2961,2.0154-1.2961s1.5696,0.5113,2.0154,1.3258C54.2297,14.1624,56.0073,17.5631,57.7849,20.9341z"/>
				<path class="st0" d="M77.7669,21.4156c0,0.6005-0.2735,1.082-0.9632,1.0523c-0.7253-0.0297-0.9037-0.5113-0.9037-1.1118v-9.875
					c-0.0297,0-0.0892,0-0.1486-0.0298c-1.2366,2.3484-2.497,4.7265-3.7336,7.0749c-0.4221,0.7788-0.8145,1.5339-1.2366,2.3127
					c-0.5113,0.9631-1.2901,1.4804-2.4079,1.4804c-1.1118,0-1.8906-0.547-2.4078-1.5101c-1.5041-2.8597-3.0083-5.7134-4.5124-8.5731
					c-0.1486-0.3032-0.3329-0.6064-0.66-0.8739v9.994c0,0.6599-0.1843,1.1415-0.9631,1.1118
					c-0.7253-0.0297-0.8739-0.5113-0.8739-1.1118v-9.875c0-1.1415,0.4816-1.8371,1.3555-2.0749
					c0.9631-0.2437,1.742,0.1189,2.283,1.1415c1.5993,3.0083,3.1926,6.0225,4.7859,9.0308c0.214,0.3924,0.3626,0.8442,0.9334,0.8739
					c0.6361,0.0297,0.7848-0.4816,0.9928-0.9037c1.5695-2.9489,3.1332-5.9274,4.6968-8.8822
					c0.3032-0.541,0.6005-1.0523,1.2069-1.2604c1.2604-0.4518,2.5267,0.4221,2.5565,1.8668
					C77.8264,14.644,77.7966,18.0447,77.7669,21.4156z"/>
				<path class="st1" d="M43.338,15.3634c-0.2437-2.1641-1.2366-3.912-3.0737-5.1783c-0.8085-0.5708-1.7717-0.7491-2.6754-1.1415
					c-0.006,0-0.006,0-0.0119,0c-0.113,0-0.2378,0-0.321,0.0297c-0.0654,0.0179-0.1308,0.0357-0.1962,0.0535
					c0,0-0.006,0.006-0.0178,0.006c-0.3865,0.0832-0.7789,0.0713-1.1593-0.0357c-0.006,0-0.006-0.006-0.0119-0.006
					c-0.0178-0.006-0.0416-0.0119-0.0594-0.0179h-0.1784c-0.0238,0.0179-0.0475,0.0357-0.0713,0.0476
					c-0.0535,0.0416-0.1011,0.0773-0.1427,0.1011c-3.8525,0.8443-6.1057,3.9774-5.5945,7.7348
					c0.4518,3.4958,3.6088,5.9631,7.3721,5.7193c1.9263-0.1189,3.4899-1.0523,4.6968-2.5564
					c0.3567-0.4816,0.4221-0.9928-0.0594-1.3853c-0.4816-0.4221-0.9632-0.2675-1.3555,0.1784
					c-0.1189,0.1545-0.2437,0.3032-0.3627,0.4221c-1.4447,1.415-3.1926,1.8965-5.1486,1.2663
					c-1.8014-0.5707-2.8894-1.8668-3.3353-3.7931h10.4101C43.0942,16.8081,43.4569,16.4157,43.338,15.3634z M36.5663,10.9104
					c2.1046,0.0297,4.0309,1.415,4.6908,3.3709c0.1843,0.541,0.1843,0.7491-0.4816,0.7194c-1.4447-0.0297-2.8537,0-4.2687,0
					c-1.3555,0-2.711-0.0297-4.0666,0c-0.7491,0.0297-0.7788-0.2675-0.5707-0.8383C32.5592,12.2659,34.5153,10.8807,36.5663,10.9104
					z"/>
				<path class="st2" d="M23.1122,9.1922c-0.0119,0.006-0.0238,0.0179-0.0357,0.0238c-0.6004,0.4161-1.2009,0.4221-1.8014,0.0119
					c-0.0179-0.006-0.0416-0.0238-0.0595-0.0357c0-0.0475,0-0.0773,0.0179-0.1189c0-0.0059,0.006-0.0178,0.0119-0.0297h1.8371
					C23.0825,9.1031,23.1122,9.1328,23.1122,9.1922z"/>
				<path class="st3" d="M37.2267,9.0441c-0.4815,0.2709-0.9631,0.2709-1.4446,0C36.2637,9.0441,36.7452,9.0441,37.2267,9.0441z"/>
				<path class="st4" d="M0.4787,10.6191c-0.0238,0.0357-0.0476,0.0654-0.0773,0.1011c-0.006,0.006-0.006,0.006-0.0119,0.0119
					c-0.0594-0.0297-0.1189-0.0297-0.1784-0.0297V9.7986h0.1784c0.0178,0.0178,0.0357,0.0416,0.0476,0.0594
					C0.6333,10.1019,0.6452,10.3694,0.4787,10.6191z"/>
				<path class="st1" d="M77.7669,21.4156c0,0.6005-0.2735,1.082-0.9632,1.0523c-0.7253-0.0297-0.9037-0.5113-0.9037-1.1118v-9.875
					c-0.0297,0-0.0892,0-0.1486-0.0298c-1.2366,2.3484-2.497,4.7265-3.7336,7.0749c-0.4221,0.7788-0.8145,1.5339-1.2366,2.3127
					c-0.5113,0.9631-1.2901,1.4804-2.4079,1.4804c-1.1118,0-1.8906-0.547-2.4078-1.5101c-1.5041-2.8597-3.0083-5.7134-4.5124-8.5731
					c-0.1486-0.3032-0.3329-0.6064-0.66-0.8739v9.994c0,0.6599-0.1843,1.1415-0.9631,1.1118
					c-0.7253-0.0297-0.8739-0.5113-0.8739-1.1118v-9.875c0-1.1415,0.4816-1.8371,1.3555-2.0749
					c0.9631-0.2437,1.742,0.1189,2.283,1.1415c1.5993,3.0083,3.1926,6.0225,4.7859,9.0308c0.214,0.3924,0.3626,0.8442,0.9334,0.8739
					c0.6361,0.0297,0.7848-0.4816,0.9928-0.9037c1.5695-2.9489,3.1332-5.9274,4.6968-8.8822
					c0.3032-0.541,0.6005-1.0523,1.2069-1.2604c1.2604-0.4518,2.5267,0.4221,2.5565,1.8668
					C77.8264,14.644,77.7966,18.0447,77.7669,21.4156z"/>
				<path class="st1" d="M18.0529,16.8081c3.1926,0.0297,6.4149,0,9.6016,0c0.9631,0,1.2663-0.3329,1.2366-1.2604
					c-0.0892-3.1331-2.6516-5.9631-5.7788-6.3555h-1.8965c-0.3329,0.0654-0.6599,0.0951-0.9334,0.1843
					c-3.5493,1.0226-5.5945,4.4827-4.8157,8.0915c0.7551,3.4958,4.1855,5.7788,7.7942,5.1783
					c1.7777-0.2973,3.2223-1.201,4.3044-2.6456c0.3329-0.4816,0.3329-0.9334-0.1189-1.2961
					c-0.4816-0.3924-0.9631-0.3032-1.3555,0.1784c-0.0892,0.0951-0.1486,0.1843-0.2378,0.2735
					c-2.4376,2.8597-7.0451,2.0452-8.4006-1.415C17.1551,17.0519,17.2146,16.8081,18.0529,16.8081z M17.3632,14.2516
					c0.6302-1.9263,2.6159-3.3412,4.6968-3.3412c2.0749,0,4.0309,1.415,4.7265,3.3412c0.2378,0.6599,0.0297,0.7788-0.5767,0.7491
					h-4.1795c-1.3853,0-2.7705-0.0297-4.1558,0C17.2443,15.0305,17.1849,14.7927,17.3632,14.2516z"/>
				<path class="st1" d="M57.5412,22.4085c-0.6897,0.3567-1.1118-0.0595-1.415-0.6956c-1.6825-3.1866-3.3709-6.409-5.0535-9.6016
					c-0.1546-0.2973-0.2438-0.7788-0.6659-0.8086c-0.4221,0-0.4816,0.4816-0.6599,0.7788
					c-0.9334,1.7182-1.8371,3.4661-2.8002,5.2972h5.208c0.6599,0,1.2663,0.0892,1.2307,0.9334
					c-0.0298,0.7848-0.6005,0.8739-1.201,0.9037c-1.8371,0-3.6742,0.0298-5.535,0c-0.4816,0-0.7551,0.1486-0.9631,0.6005
					c-0.3329,0.7253-0.7253,1.3853-1.088,2.0808c-0.2973,0.6005-0.7788,0.868-1.415,0.541
					c-0.6005-0.3329-0.5113-0.9037-0.2081-1.4447c1.8073-3.4007,3.6088-6.8311,5.4161-10.2318
					c0.4221-0.8145,1.082-1.2961,2.0154-1.2961s1.5696,0.5113,2.0154,1.3258c1.8073,3.3709,3.585,6.7716,5.3626,10.1426
					C58.0822,21.5048,58.1714,22.0756,57.5412,22.4085z"/>
				<path class="st1" d="M15.6153,10.9104c-1.3198,2.4673-2.6159,4.9643-3.9417,7.4316c-0.5113,0.9928-1.0226,1.9857-1.5636,2.9489
					c-0.4518,0.8145-1.082,1.3555-2.0749,1.3852c-0.9928,0-1.6587-0.4816-2.0808-1.3198c-1.8252-3.5493-3.692-7.0927-5.5528-10.6361
					c-0.006-0.006-0.006-0.0119-0.0119-0.0178V9.7689c0.7848-0.6361,1.2663-0.547,1.7479,0.3864
					c1.742,3.2818,3.4601,6.5636,5.2021,9.8453c0.1843,0.327,0.2437,0.8383,0.7253,0.8383c0.4221,0,0.4816-0.4816,0.66-0.7788
					c1.6884-3.1926,3.3412-6.3793,5.0297-9.5421c0.0892-0.1486,0.1783-0.3329,0.2378-0.4816
					c0.3032-0.5113,0.6956-0.8145,1.2663-0.5113C15.8591,9.8284,15.9185,10.3396,15.6153,10.9104z"/>
			</g>
		</g>
	</g>
</g>
</svg>
